<?xml version="1.0" standalone="no"?>
<!DOCTYPE svg PUBLIC "-//W3C//DTD SVG 20010904//EN"
 "http://www.w3.org/TR/2001/REC-SVG-20010904/DTD/svg10.dtd">
<svg version="1.0" xmlns="http://www.w3.org/2000/svg"
 width="2000.000000pt" height="6000.000000pt" viewBox="0 0 2000.000000 6000.000000"
 preserveAspectRatio="xMidYMid meet">

<g transform="translate(0.000000,6000.000000) scale(0.100000,-0.100000)"
fill="#000000" stroke="none">
<path d="M8858 58918 c-89 -170 -132 -314 -148 -505 -44 -496 155 -854 697
-1255 55 -42 131 -95 167 -119 36 -24 66 -49 66 -56 0 -10 -93 -13 -453 -15
l-452 -3 125 -807 125 -808 131 0 131 0 93 233 c136 339 148 358 240 401 45
21 46 21 1415 24 l1370 2 45 -22 c76 -39 99 -81 191 -357 l84 -251 143 0 142
0 0 1195 0 1195 -142 0 -143 0 -64 -243 c-93 -350 -107 -392 -143 -433 -66
-75 43 -69 -1285 -72 l-1192 -2 -123 122 c-222 221 -311 388 -339 636 -17 154
24 318 108 428 37 48 102 84 326 180 l67 28 0 273 0 273 -580 0 -580 0 -22
-42z"/>
<path d="M12380 55085 c0 -19 16 -97 36 -173 43 -163 51 -293 21 -377 -27 -77
-83 -145 -150 -179 l-58 -30 -1232 0 -1232 -1 -95 -22 c-302 -72 -513 -216
-684 -467 -126 -185 -212 -434 -262 -761 -23 -149 -26 -616 -5 -790 31 -260
96 -549 183 -815 47 -145 145 -421 152 -427 1 -2 184 13 407 32 222 19 412 35
422 35 15 0 17 11 17 96 l0 96 -119 171 c-306 443 -425 652 -508 892 -99 288
-58 625 95 781 141 142 328 180 843 168 l290 -7 -6 -41 c-28 -216 -47 -506
-42 -661 18 -540 221 -1111 510 -1433 267 -298 538 -422 917 -423 157 0 270
17 396 62 222 77 412 215 550 398 152 203 210 377 221 656 11 314 -44 605
-162 850 -106 220 -244 388 -442 538 -51 38 -93 75 -93 82 0 9 26 15 83 20
365 32 549 221 608 625 18 128 7 344 -25 462 -50 188 -172 469 -270 622 l-36
56 -165 0 -165 0 0 -35z m-303 -1813 c80 -64 169 -169 211 -250 125 -239 169
-551 108 -757 -38 -126 -80 -199 -157 -276 -112 -112 -238 -161 -449 -175
-431 -29 -715 206 -834 690 -45 179 -84 539 -86 774 l0 32 579 0 579 0 49 -38z"/>
<path d="M8830 49623 l0 -733 -610 0 c-481 0 -610 -3 -610 -12 0 -11 142 -881
144 -884 1 -1 149 -12 330 -23 181 -12 361 -28 400 -37 184 -38 307 -149 369
-335 27 -81 73 -274 83 -353 l7 -46 193 0 194 0 0 335 0 335 1438 0 c934 0
1467 4 1520 10 97 13 189 44 268 91 70 42 190 159 242 236 221 325 298 823
200 1283 -43 202 -157 505 -276 735 l-57 110 -163 3 -162 2 0 -53 c0 -30 9
-89 20 -133 45 -173 64 -314 64 -469 1 -134 -2 -160 -27 -250 -16 -55 -50
-145 -77 -200 -83 -172 -173 -274 -282 -318 l-53 -22 -1327 -3 -1328 -2 0 703
0 703 -250 30 -250 30 0 -733z"/>
<path d="M10595 46770 c-591 -65 -1107 -313 -1420 -680 -317 -371 -456 -759
-472 -1315 -9 -330 27 -606 113 -864 238 -712 844 -1210 1634 -1345 241 -41
615 -46 855 -11 499 72 898 259 1199 561 291 293 469 661 542 1124 28 176 26
637 -4 810 -65 378 -176 645 -384 922 -314 417 -796 690 -1383 783 -118 19
-557 28 -680 15z m795 -1115 c351 -42 663 -142 863 -276 34 -23 96 -76 137
-118 159 -160 220 -319 220 -571 0 -258 -64 -421 -230 -590 -145 -146 -295
-233 -559 -320 -334 -112 -803 -167 -1205 -142 -672 42 -1126 224 -1332 533
-95 143 -130 286 -121 499 6 156 25 230 88 360 35 69 60 102 138 181 105 104
186 162 329 233 218 110 573 195 941 226 152 12 572 4 731 -15z"/>
<path d="M12681 42008 c-5 -13 -46 -137 -91 -276 -89 -272 -116 -323 -183
-356 -32 -15 -255 -16 -2806 -16 l-2770 0 4 -27 c3 -16 39 -395 80 -843 41
-448 78 -830 81 -847 l5 -33 128 0 129 0 15 38 c8 20 61 159 118 307 95 246
108 274 149 317 29 29 59 50 85 57 28 8 720 11 2391 11 l2351 0 42 -23 c74
-38 92 -76 188 -389 l88 -288 143 0 142 0 0 1195 0 1195 -140 0 c-136 0 -141
-1 -149 -22z"/>
<path d="M12380 39445 c0 -19 16 -97 36 -173 43 -163 51 -293 21 -377 -27 -77
-83 -145 -150 -179 l-58 -30 -1232 0 -1232 -1 -95 -22 c-302 -72 -513 -216
-684 -467 -126 -185 -212 -434 -262 -761 -23 -149 -26 -616 -5 -790 31 -266
96 -549 188 -830 49 -151 140 -405 147 -412 1 -2 184 13 407 32 222 19 412 35
422 35 15 0 17 11 17 96 l0 96 -108 157 c-242 349 -355 530 -426 684 -105 225
-135 331 -143 507 -16 349 115 559 390 630 128 32 287 41 599 34 l289 -7 -6
-41 c-30 -230 -47 -496 -42 -656 18 -544 220 -1115 510 -1438 267 -298 538
-422 917 -423 157 0 271 18 396 62 222 77 412 215 550 398 152 203 210 377
221 656 11 314 -44 605 -162 850 -106 220 -239 383 -441 536 -52 40 -94 78
-94 84 0 9 27 15 83 20 365 32 549 221 608 625 18 128 7 344 -25 462 -50 188
-172 469 -270 622 l-36 56 -165 0 -165 0 0 -35z m-303 -1813 c80 -64 169 -169
211 -250 125 -239 169 -551 108 -757 -38 -126 -80 -199 -157 -276 -112 -112
-238 -161 -449 -175 -431 -29 -715 206 -834 690 -45 179 -84 539 -86 774 l0
32 579 0 579 0 49 -38z"/>
<path d="M7310 34315 l0 -925 143 0 144 0 118 323 c64 177 120 327 124 334 4
7 641 -228 1986 -735 2222 -838 2059 -768 1903 -816 -430 -131 -546 -174
-1753 -653 -2083 -827 -2156 -856 -2165 -847 -4 5 -35 99 -69 209 -35 110 -80
257 -102 328 l-40 127 -145 0 -144 0 0 -1180 0 -1180 144 0 c106 0 145 3 149
13 2 6 39 102 82 212 42 110 86 216 96 236 22 45 91 106 151 136 34 17 2789
1112 4886 1943 l232 92 -2 311 -3 311 -460 224 -460 224 -2075 815 c-1480 581
-2091 825 -2130 851 -30 20 -70 58 -90 84 -19 26 -80 146 -134 267 l-99 221
-143 0 -144 0 0 -925z"/>
<path d="M10595 26710 c-591 -65 -1107 -313 -1420 -680 -318 -373 -456 -759
-472 -1320 -9 -329 27 -600 113 -859 238 -711 844 -1210 1634 -1345 241 -41
615 -46 855 -11 499 72 898 259 1199 561 291 293 469 662 542 1124 26 165 27
627 1 785 -77 466 -239 806 -533 1115 -309 324 -733 535 -1239 615 -118 19
-557 28 -680 15z m795 -1115 c351 -42 663 -142 863 -276 34 -23 96 -76 137
-118 159 -160 220 -319 220 -571 0 -258 -64 -421 -230 -590 -145 -146 -295
-233 -559 -320 -334 -112 -803 -167 -1205 -142 -672 42 -1126 224 -1332 533
-95 143 -130 286 -121 499 6 156 25 230 88 360 35 69 60 102 138 181 105 104
186 162 329 233 218 110 573 195 941 226 152 12 572 4 731 -15z"/>
<path d="M12687 21993 c-3 -5 -42 -127 -87 -273 -89 -285 -98 -310 -139 -353
-56 -61 68 -57 -1877 -57 -1159 0 -1784 -3 -1784 -10 0 -10 195 -1595 205
-1667 l6 -43 129 0 128 0 29 78 c17 42 63 166 103 276 82 222 114 279 180 316
l45 25 1380 0 1380 0 38 -24 c21 -13 50 -44 65 -71 15 -27 66 -175 112 -329
l85 -281 143 0 142 0 0 1210 0 1210 -139 0 c-77 0 -142 -3 -144 -7z"/>
<path d="M7264 21406 c-187 -45 -330 -201 -396 -432 -19 -66 -23 -104 -23
-229 0 -130 3 -160 23 -225 73 -232 232 -394 431 -436 85 -18 190 -18 269 1
106 25 178 69 272 164 139 140 203 296 201 496 -1 271 -144 506 -378 624 -96
48 -282 65 -399 37z"/>
<path d="M12440 18930 c-96 -267 -130 -333 -189 -375 l-43 -30 -2689 -3 -2688
-2 4 -28 c3 -15 39 -396 80 -847 42 -451 78 -835 81 -852 l5 -33 128 0 128 0
108 288 c59 158 118 306 131 329 34 59 88 101 148 112 31 6 337 12 762 13
l711 3 -54 -60 c-103 -114 -227 -314 -278 -448 -81 -215 -102 -509 -59 -817
57 -405 231 -735 543 -1032 333 -316 770 -515 1316 -599 169 -26 542 -36 721
-20 761 70 1332 408 1599 946 56 114 92 223 122 373 27 135 25 474 -5 646 -69
399 -272 728 -594 964 -56 41 -77 63 -78 80 l0 22 350 0 c305 0 350 2 350 15
0 15 -255 1520 -265 1563 -5 21 -9 22 -134 22 l-128 0 -83 -230z m-378 -1461
c139 -90 259 -296 309 -531 27 -126 32 -354 10 -463 -95 -474 -470 -751 -1156
-855 -180 -27 -559 -38 -728 -21 -656 68 -1091 364 -1214 826 -24 91 -26 117
-27 285 0 148 4 209 22 305 39 214 79 341 138 443 l25 42 1286 0 1286 0 49
-31z"/>
<path d="M12441 13813 c-113 -309 -134 -347 -212 -390 -33 -17 -106 -18 -1764
-23 l-1731 -5 77 -475 c43 -261 103 -634 135 -828 l57 -353 130 3 129 3 97
246 c111 280 136 328 188 361 l38 23 1216 3 1215 2 62 -56 c205 -185 302 -475
289 -859 -10 -271 -66 -413 -214 -536 -100 -83 -231 -129 -473 -166 -103 -15
-261 -17 -1530 -22 l-1415 -6 125 -817 125 -818 131 0 131 0 98 242 c55 133
113 260 130 282 17 23 51 52 75 66 l45 25 1160 6 c1239 6 1192 4 1388 55 404
104 690 363 826 747 63 180 76 266 75 532 0 335 -32 494 -144 720 -98 198
-256 389 -457 552 -51 42 -93 82 -93 89 0 12 59 14 350 14 l350 0 0 22 c0 19
-253 1510 -265 1566 -5 21 -9 22 -133 22 l-128 0 -83 -227z"/>
<path d="M8830 8131 l0 -731 -610 0 c-519 0 -610 -2 -610 -14 0 -25 142 -881
147 -886 2 -2 154 -14 336 -26 343 -23 431 -36 525 -79 64 -30 162 -125 196
-193 38 -75 88 -257 123 -452 l9 -45 192 -3 192 -2 0 340 0 340 1478 0 c1258
0 1487 3 1547 15 290 61 529 344 631 747 121 477 44 969 -240 1538 -96 191
-65 170 -248 170 l-158 0 0 -56 c0 -31 9 -90 19 -132 63 -247 85 -488 57 -636
-55 -291 -214 -542 -386 -607 -49 -18 -92 -19 -1375 -19 l-1325 0 0 699 0 699
-37 6 c-21 3 -117 15 -213 26 -96 11 -192 23 -212 26 l-38 6 0 -731z"/>
<path d="M11165 5233 c-221 -26 -342 -56 -471 -117 -251 -119 -439 -286 -607
-539 -104 -156 -165 -274 -247 -477 -66 -165 -100 -267 -319 -946 -105 -324
-160 -462 -236 -589 -127 -212 -265 -329 -477 -401 -101 -34 -203 -47 -330
-42 -193 8 -312 63 -464 213 -186 185 -268 397 -280 730 -7 172 8 306 55 501
88 358 234 626 381 698 25 12 208 74 407 137 l363 114 0 208 0 207 -749 0
-749 0 -36 -147 c-205 -853 -271 -1577 -187 -2059 104 -593 409 -1088 846
-1373 329 -215 736 -281 1164 -189 371 79 700 320 923 675 133 211 241 485
378 963 227 787 438 1173 719 1311 102 51 190 70 337 76 149 6 248 -9 374 -58
277 -107 483 -379 562 -744 25 -119 35 -396 19 -531 -25 -198 -115 -494 -221
-726 -116 -255 -210 -392 -315 -461 -31 -19 -512 -178 -822 -272 -23 -6 -23
-7 -23 -216 l0 -209 48 0 c167 0 1527 51 1533 57 4 5 36 116 72 248 228 835
297 1265 284 1765 -18 627 -134 1046 -405 1455 -109 165 -298 359 -442 454
-289 192 -626 294 -955 289 -55 0 -113 -3 -130 -5z"/>
</g>
</svg>
