<?xml version="1.0" standalone="no"?>
<!DOCTYPE svg PUBLIC "-//W3C//DTD SVG 20010904//EN"
 "http://www.w3.org/TR/2001/REC-SVG-20010904/DTD/svg10.dtd">
<svg version="1.0" xmlns="http://www.w3.org/2000/svg"
 width="500.000000pt" height="2400.000000pt" viewBox="0 0 500.000000 2400.000000"
 preserveAspectRatio="xMidYMid meet">

<g transform="translate(0.000000,2400.000000) scale(0.100000,-0.100000)"
fill="#000000" stroke="none">
<path d="M2078 22872 c-28 -19 -57 -50 -75 -79 -24 -41 -28 -59 -28 -123 0
-63 5 -85 29 -135 47 -95 146 -185 332 -302 15 -9 -20 -12 -173 -12 l-193 -1
0 -38 c0 -26 34 -122 101 -288 55 -137 105 -253 109 -258 5 -5 21 -6 35 -2 23
6 26 11 21 34 -29 124 -14 186 51 218 36 18 74 19 638 22 l601 3 44 -24 c57
-30 88 -88 97 -180 l6 -67 33 0 34 0 0 440 0 440 -34 0 -33 0 -6 -60 c-12
-115 -63 -188 -152 -217 -43 -15 -112 -18 -523 -21 l-472 -3 -58 31 c-125 66
-242 173 -242 219 0 15 20 52 96 171 77 123 14 249 -130 258 -54 3 -66 0 -108
-26z"/>
<path d="M3431 21543 c83 -87 99 -112 99 -152 0 -45 -19 -65 -75 -80 -26 -7
-197 -11 -495 -11 -527 0 -669 -9 -746 -44 -109 -50 -183 -151 -221 -302 -13
-51 -17 -109 -17 -229 1 -182 18 -269 76 -378 41 -78 137 -176 208 -213 48
-25 66 -29 142 -29 72 0 91 3 115 21 98 73 97 204 -3 261 -33 19 -54 23 -142
23 -116 0 -158 13 -210 63 -66 63 -91 153 -72 259 15 81 40 128 91 172 65 55
185 85 345 86 l71 0 68 -172 c137 -350 237 -532 354 -649 113 -112 239 -153
399 -130 199 29 342 170 358 356 13 148 -23 239 -180 450 l-104 140 66 8 c88
10 147 39 180 90 23 34 27 51 27 111 0 107 -32 166 -161 294 l-104 102 -57 0
-57 0 45 -47z m-11 -620 c64 -87 117 -192 132 -265 10 -49 9 -65 -6 -113 -23
-74 -93 -145 -173 -175 -81 -31 -206 -25 -279 12 -61 32 -156 132 -207 219
-35 61 -167 359 -167 379 0 6 124 10 325 10 l325 0 50 -67z"/>
<path d="M3400 19867 c0 -27 8 -38 47 -67 64 -47 97 -109 98 -180 0 -70 -29
-114 -94 -144 -45 -21 -58 -21 -673 -24 l-628 -3 0 201 0 200 -65 0 -65 0 0
-200 0 -200 -281 0 -280 0 3 -30 c3 -29 10 -34 106 -75 220 -95 414 -261 498
-427 21 -41 29 -48 54 -48 l30 0 0 135 0 135 633 0 c759 1 782 3 883 92 19 17
49 59 67 92 28 54 31 71 32 146 0 77 -3 92 -34 155 -47 95 -132 178 -238 233
-44 23 -84 42 -87 42 -3 0 -6 -15 -6 -33z"/>
<path d="M2739 18689 c-354 -37 -655 -279 -741 -596 -28 -104 -31 -317 -5
-413 28 -107 108 -257 176 -331 111 -122 293 -226 481 -277 81 -21 117 -25
245 -26 185 -1 282 21 430 94 286 142 442 363 462 656 11 161 -30 338 -108
471 -48 82 -189 221 -274 270 -146 85 -294 134 -460 153 -99 11 -97 11 -206
-1z m535 -364 c106 -22 171 -49 234 -96 137 -103 184 -276 121 -445 -17 -46
-39 -76 -98 -135 -65 -65 -93 -84 -191 -132 -199 -97 -383 -133 -645 -124
-179 5 -271 24 -375 77 -241 122 -298 413 -121 612 114 128 349 229 599 258
114 13 383 5 476 -15z"/>
<path d="M3670 16788 c-1 -109 -36 -178 -109 -212 -46 -21 -46 -21 -1269 -24
l-1222 -3 0 -39 c0 -28 31 -117 101 -288 56 -136 104 -251 108 -255 9 -9 61
12 61 24 0 4 -7 33 -15 64 -26 101 10 156 116 175 36 7 410 9 1070 8 l1014 -3
50 -25 c62 -31 86 -71 93 -155 l5 -65 33 0 34 0 0 420 0 420 -35 0 c-34 0 -35
-1 -35 -42z"/>
<path d="M3441 15773 c71 -73 89 -101 89 -134 0 -42 -10 -58 -44 -77 -28 -15
-89 -18 -601 -23 -316 -4 -586 -11 -605 -16 -106 -30 -201 -109 -245 -206 -46
-100 -59 -179 -59 -352 1 -182 19 -270 76 -377 43 -81 139 -177 211 -213 82
-40 176 -45 236 -13 65 34 86 67 86 138 0 67 -20 102 -75 134 -27 16 -50 19
-129 18 -129 -2 -166 9 -223 68 -56 58 -72 106 -71 206 2 114 55 208 144 254
57 30 184 51 282 48 l88 -3 58 -150 c174 -451 313 -669 481 -756 64 -34 66
-34 201 -34 l135 0 76 38 c93 46 166 121 199 205 30 76 33 222 6 299 -21 61
-87 164 -192 304 l-74 97 62 7 c82 9 155 45 187 91 33 50 35 156 4 224 -32 69
-106 160 -180 223 -65 54 -71 57 -123 57 l-55 0 55 -57z m-26 -600 c25 -32 66
-100 92 -150 42 -83 47 -100 47 -160 0 -82 -21 -130 -86 -190 -65 -59 -144
-86 -238 -81 -46 3 -93 13 -122 26 -96 42 -201 168 -273 326 -41 91 -115 270
-115 279 0 4 146 7 325 7 l325 0 45 -57z"/>
<path d="M1190 14125 l0 -395 34 0 c34 0 34 0 50 72 29 129 89 198 172 198 22
0 73 -9 114 -21 65 -18 1563 -619 1630 -654 l25 -14 -35 -14 c-19 -9 -375
-162 -789 -342 -415 -179 -793 -338 -840 -351 -177 -52 -252 -4 -282 182 l-12
74 -33 0 -34 0 0 -520 0 -520 35 0 c30 0 35 3 35 23 0 31 27 133 46 173 27 57
81 109 146 142 34 18 576 254 1203 526 l1140 493 3 35 c2 22 -2 37 -10 41 -7
3 -508 208 -1114 455 -606 248 -1123 461 -1150 475 -80 41 -168 111 -201 161
-17 25 -39 75 -48 111 -18 64 -19 65 -51 65 l-34 0 0 -395z"/>
<path d="M2739 10759 c-354 -37 -655 -279 -741 -596 -28 -104 -31 -317 -5
-413 28 -107 108 -257 176 -331 111 -122 293 -226 481 -277 81 -21 117 -25
245 -26 185 -1 282 21 430 94 286 142 442 363 462 656 11 161 -30 338 -108
471 -48 82 -189 221 -274 270 -146 85 -294 134 -460 153 -99 11 -97 11 -206
-1z m535 -364 c106 -22 171 -49 234 -96 137 -103 184 -276 121 -445 -17 -46
-39 -76 -98 -135 -65 -65 -93 -84 -191 -132 -199 -97 -383 -133 -645 -124
-179 5 -271 24 -375 77 -241 122 -298 413 -121 612 114 128 349 229 599 258
114 13 383 5 476 -15z"/>
<path d="M3667 8815 c-12 -126 -60 -170 -203 -185 -49 -5 -405 -10 -791 -10
l-703 0 0 -38 c0 -26 34 -122 101 -288 55 -137 105 -253 109 -258 5 -5 21 -4
39 3 l29 13 -14 40 c-33 94 -14 160 53 191 48 22 51 22 648 22 l600 0 44 -25
c59 -33 81 -72 88 -159 l6 -71 33 0 34 0 0 415 0 415 -34 0 -33 0 -6 -65z"/>
<path d="M1185 8641 c-144 -65 -151 -273 -13 -340 85 -41 169 -23 231 49 61
71 61 168 0 241 -33 38 -95 69 -143 69 -19 0 -53 -9 -75 -19z"/>
<path d="M3540 7911 c-15 -5 -23 -14 -21 -22 44 -160 28 -205 -81 -237 -46
-14 -205 -16 -1210 -20 l-1158 -3 0 -39 c0 -27 33 -119 103 -290 57 -137 106
-253 109 -256 3 -2 18 1 32 8 23 10 26 16 21 37 -3 15 -9 53 -12 86 -4 51 -2
64 17 87 40 51 92 59 448 65 177 3 322 4 322 1 0 -3 -14 -23 -31 -44 -130
-161 -143 -436 -33 -660 106 -216 367 -404 655 -474 247 -59 533 -24 733 92
108 63 233 193 285 298 120 245 84 495 -103 710 l-66 75 120 3 120 3 0 40 c0
28 -29 109 -96 272 -114 275 -116 277 -123 276 -3 -1 -17 -4 -31 -8z m-81
-636 c29 -30 66 -85 84 -122 29 -62 32 -77 32 -164 0 -90 -2 -99 -37 -171 -45
-90 -159 -205 -253 -255 -261 -138 -724 -133 -969 11 -71 42 -159 133 -192
201 -57 117 -41 262 40 368 65 85 190 156 309 176 29 5 250 9 493 10 l441 1
52 -55z"/>
<path d="M3538 5973 c-21 -5 -22 -20 -7 -60 17 -44 14 -116 -5 -145 -9 -14
-36 -35 -59 -45 -39 -17 -89 -18 -744 -21 l-703 -3 0 -294 0 -295 35 0 c34 0
35 1 35 38 0 20 5 57 11 82 18 78 37 107 87 132 l47 23 540 3 540 3 56 -63
c84 -95 126 -158 155 -234 60 -154 15 -312 -106 -374 -74 -37 -124 -40 -770
-40 l-630 0 0 -300 0 -300 35 0 35 0 0 53 c0 105 37 178 107 213 35 18 76 19
608 25 545 5 574 6 649 27 145 40 234 110 294 230 36 74 37 79 36 181 -2 181
-43 260 -237 459 l-120 122 181 0 182 0 0 43 c-1 53 -199 541 -221 543 -8 1
-22 0 -31 -3z"/>
<path d="M3400 4035 c0 -19 4 -35 9 -35 5 0 32 -21 60 -46 92 -83 105 -192 32
-265 -64 -64 -59 -64 -736 -64 l-610 0 -3 198 -2 197 -65 0 -65 0 0 -200 0
-200 -280 0 -280 0 0 -27 c0 -26 8 -31 107 -73 58 -25 138 -66 177 -92 134
-87 276 -237 329 -345 17 -35 26 -43 49 -43 l27 0 3 138 3 137 680 5 c750 6
717 3 808 70 75 55 127 160 127 256 0 106 -77 249 -174 323 -50 38 -166 101
-186 101 -5 0 -10 -16 -10 -35z"/>
<path d="M2959 2786 c-76 -16 -178 -60 -244 -106 -128 -88 -221 -218 -443
-616 -301 -540 -418 -664 -622 -652 -50 3 -91 13 -123 28 -62 29 -150 110
-184 167 -122 209 -64 531 132 729 109 110 238 171 443 210 l92 18 0 33 0 33
-440 0 -440 0 0 -33 c0 -31 4 -35 42 -46 57 -18 84 -37 98 -72 17 -41 8 -83
-45 -213 -60 -149 -85 -250 -92 -371 -13 -238 63 -444 221 -598 77 -74 149
-119 248 -154 101 -37 278 -39 383 -6 214 68 352 216 595 638 239 414 274 469
346 542 112 114 243 166 367 144 171 -30 303 -164 348 -351 7 -30 12 -104 12
-165 -2 -181 -63 -348 -177 -486 -93 -113 -208 -175 -419 -225 -61 -14 -118
-28 -124 -30 -7 -2 -13 -17 -13 -34 l0 -30 441 0 440 0 -3 31 c-3 29 -7 33
-53 44 -31 8 -58 23 -73 41 -33 38 -27 88 38 288 67 207 78 260 86 386 11 184
-17 335 -92 480 -83 163 -233 295 -400 352 -102 35 -243 45 -345 24z"/>
</g>
</svg>
